<svg fill="none" height="208" viewBox="0 0 554 208" width="554" xmlns="http://www.w3.org/2000/svg"><path d="m0 0h223v208h-223z" fill="#ffe2e8"/><g fill="#000"><path d="m82.4 78.04c0-19.53-9-31.95-23.4-31.95s-23.4 12.42-23.4 31.95c0 19.62 9 32.04 23.4 32.04s23.4-12.42 23.4-32.04zm-10.62 0c0 13.77-4.86 21.96-12.78 21.96s-12.78-8.19-12.78-21.96c0-13.68 4.86-21.87 12.78-21.87s12.78 8.19 12.78 21.87zm15.8948 25.29c0 3.69 2.88 6.66 6.75 6.66s6.7502-2.97 6.7502-6.66-2.8802-6.66-6.7502-6.66-6.75 2.97-6.75 6.66zm31.2822-21.15c2.52-3.51 6.12-5.94 10.89-5.94 6.75 0 11.97 5.13 11.97 11.97 0 6.66-5.13 12.06-11.79 12.06-6.84 0-11.16-4.32-11.79-9.99h-10.44c.18 11.61 9.27 19.8 22.32 19.8 12.6 0 22.41-9.63 22.41-22.41 0-11.25-8.46-20.52-20.25-20.52-4.77 0-9.63 1.71-12.33 4.41l2.07-14.94h26.1v-9.45h-34.29l-4.5 33.03z"/><path d="m186.4 81.52h-4.04l-20.28 27.48h4.04zm-10.68 21.4c0 3.6 2.92 6.36 6.56 6.36s6.56-2.76 6.56-6.36-2.92-6.36-6.56-6.36-6.56 2.76-6.56 6.36zm-16.12-15.32c0 3.6 2.92 6.36 6.56 6.36s6.56-2.76 6.56-6.36-2.92-6.36-6.56-6.36-6.56 2.76-6.56 6.36zm3.24 0c0-1.92 1.48-3.36 3.32-3.36s3.32 1.44 3.32 3.36-1.48 3.36-3.32 3.36-3.32-1.44-3.32-3.36zm16.12 15.32c0-1.92 1.48-3.36 3.32-3.36s3.32 1.44 3.32 3.36-1.48 3.36-3.32 3.36-3.32-1.44-3.32-3.36z"/><path d="m64.6194 148v-7.362h2.448v-1.386h-2.448v-.792c0-1.368.738-1.854 1.71-1.854.45 0 .792.072 1.062.18v-1.386c-.27-.108-.684-.216-1.314-.216-1.728 0-3.006 1.08-3.006 3.312v.756h-1.35v1.386h1.35v7.362zm7.7636-8.946c-2.628 0-4.572 2.034-4.572 4.572s1.944 4.572 4.572 4.572 4.572-2.034 4.572-4.572-1.944-4.572-4.572-4.572zm0 1.422c1.71 0 3.006 1.404 3.006 3.15s-1.296 3.15-3.006 3.15-3.006-1.404-3.006-3.15 1.296-3.15 3.006-3.15zm11.3878-1.332s-.162-.036-.378-.036c-1.152 0-2.286.684-2.682 1.692v-1.548h-1.512v8.748h1.53v-4.158c0-1.89.99-3.186 2.61-3.186.27 0 .432.036.432.036zm13.1844.108v1.332c-.648-.972-1.818-1.53-3.096-1.53-2.484 0-4.392 1.998-4.392 4.572 0 2.592 1.908 4.572 4.392 4.572 1.278 0 2.466-.63 3.096-1.602v1.404h1.53v-8.748zm.09 4.374c0 1.764-1.296 3.15-3.006 3.15s-3.006-1.386-3.006-3.15 1.296-3.15 3.006-3.15 3.006 1.386 3.006 3.15zm5.8678-.216c0-1.782.882-2.934 2.232-2.934 1.296 0 1.98.99 1.98 2.556v4.968h1.548v-4.59c0-1.782.882-2.934 2.232-2.934 1.314 0 1.98.972 1.98 2.52v5.004h1.548v-5.274c0-2.25-1.206-3.672-3.222-3.672-1.656 0-2.556.972-2.988 1.71-.522-1.062-1.458-1.71-2.754-1.71-1.206 0-2.088.558-2.574 1.458v-1.26h-1.53v8.748h1.548zm18.214-4.356c-2.628 0-4.572 2.034-4.572 4.572s1.944 4.572 4.572 4.572 4.572-2.034 4.572-4.572-1.944-4.572-4.572-4.572zm0 1.422c1.71 0 3.006 1.404 3.006 3.15s-1.296 3.15-3.006 3.15-3.006-1.404-3.006-3.15 1.296-3.15 3.006-3.15zm12.901 3.348c0 1.782-.972 2.934-2.448 2.934s-2.268-.99-2.268-2.556v-4.95h-1.548v5.13c0 2.322 1.278 3.816 3.492 3.816 1.314 0 2.232-.594 2.772-1.458v1.26h1.548v-8.748h-1.548zm5.975-.396c0-1.782.972-2.934 2.466-2.934s2.304.99 2.304 2.556v4.95h1.548v-5.13c0-2.322-1.296-3.816-3.528-3.816-1.314 0-2.25.594-2.79 1.458v-1.26h-1.548v8.748h1.548zm9.323-6.804v2.628h-1.35v1.386h1.35v4.842c0 1.692.99 2.718 2.646 2.718.594 0 1.044-.108 1.35-.27v-1.44c-.27.18-.648.27-.99.27-1.008 0-1.458-.468-1.458-1.494v-4.626h2.448v-1.386h-2.448v-2.628zm5.492 9.198c.396 1.44 1.656 2.376 3.276 2.376 1.71 0 3.024-1.116 3.024-2.664 0-1.152-.702-2.016-2.286-2.556l-.9-.306c-.882-.306-1.278-.702-1.278-1.224 0-.63.558-1.062 1.278-1.062.774 0 1.368.486 1.674 1.332l1.35-.54c-.468-1.314-1.566-2.124-2.988-2.124-1.62 0-2.844 1.026-2.844 2.502 0 1.116.684 1.962 2.25 2.484l.972.324c.846.288 1.242.666 1.242 1.26 0 .774-.72 1.224-1.458 1.224-.918 0-1.674-.612-1.944-1.548zm-90.1172 21.002c0 1.512-.81 2.466-2.052 2.466-1.206 0-1.908-.828-1.908-2.196v-4.914h-2.088v5.31c0 2.286 1.278 3.726 3.366 3.726 1.224 0 2.142-.558 2.682-1.386v1.17h2.088v-8.82h-2.088zm4.6772-4.644v12.564h2.07v-4.95c.648.9 1.764 1.422 2.988 1.422 2.43 0 4.302-2.034 4.302-4.626 0-2.628-1.872-4.626-4.302-4.626-1.224 0-2.34.576-2.988 1.476v-1.26zm7.272 4.41c0 1.53-1.152 2.736-2.646 2.736s-2.646-1.206-2.646-2.736 1.152-2.736 2.646-2.736 2.646 1.206 2.646 2.736zm8.7857-7.02v2.61h-1.314v1.764h1.314v4.338c0 1.836 1.062 2.934 2.826 2.934.72 0 1.242-.144 1.584-.324v-1.854c-.27.18-.648.27-.972.27-.936 0-1.368-.432-1.368-1.404v-3.96h2.34v-1.764h-2.34v-2.61zm10.2831 2.394c-2.7 0-4.698 2.034-4.698 4.626s1.998 4.626 4.698 4.626 4.6982-2.034 4.6982-4.626-1.9982-4.626-4.6982-4.626zm0 1.908c1.476 0 2.628 1.206 2.628 2.718s-1.152 2.718-2.628 2.718-2.628-1.206-2.628-2.718 1.152-2.718 2.628-2.718zm13.8932-6.84v1.674c-1.764.234-3.06 1.494-3.06 3.33 0 1.674 1.062 2.61 2.79 3.294l.27.108v3.51c-.81-.252-1.422-.9-1.746-1.8l-1.8.864c.576 1.656 1.89 2.682 3.546 2.916v1.8h1.494v-1.8c1.818-.288 3.24-1.584 3.24-3.564 0-1.584-.918-2.646-2.772-3.348l-.468-.18v-3.078c.558.27.972.81 1.224 1.422l1.746-.9c-.558-1.35-1.638-2.25-2.97-2.52v-1.728zm2.646 10.458c0 .756-.486 1.26-1.152 1.476v-2.97c.774.342 1.152.828 1.152 1.494zm-3.618-5.58c0-.594.378-1.062.972-1.242v2.556c-.648-.324-.972-.72-.972-1.314zm11.469 1.782h-.612v1.71h.612c1.332 0 2.34.756 2.34 1.89 0 1.206-.918 1.962-2.178 1.962-1.314 0-2.268-.972-2.358-2.25h-2.07c.036 2.592 1.746 4.212 4.374 4.212 2.52 0 4.374-1.566 4.374-3.816 0-1.386-.81-2.502-2.142-2.988 1.026-.558 1.602-1.494 1.602-2.646.018-1.908-1.62-3.348-3.888-3.348-2.34 0-4.014 1.548-4.05 3.96h2.052c.036-1.17.81-2.016 1.962-2.016 1.062 0 1.818.702 1.818 1.638 0 .9-.846 1.692-1.836 1.692zm7.639 9.252.9-1.8c.252-.486.378-.864.378-1.278 0-.756-.594-1.332-1.35-1.332-.738 0-1.35.558-1.35 1.332 0 .63.486 1.134 1.098 1.134h.018l-1.008 1.944zm12.771-8.136c0-3.348-1.71-6.39-5.13-6.39s-5.13 3.042-5.13 6.39c0 3.366 1.71 6.408 5.13 6.408s5.13-3.042 5.13-6.408zm-2.142 0c0 2.25-.918 4.41-2.988 4.41s-2.988-2.16-2.988-4.41c0-2.232.918-4.392 2.988-4.392s2.988 2.16 2.988 4.392zm14.201 0c0-3.348-1.71-6.39-5.13-6.39s-5.13 3.042-5.13 6.39c0 3.366 1.71 6.408 5.13 6.408s5.13-3.042 5.13-6.408zm-2.142 0c0 2.25-.918 4.41-2.988 4.41s-2.988-2.16-2.988-4.41c0-2.232.918-4.392 2.988-4.392s2.988 2.16 2.988 4.392zm14.201 0c0-3.348-1.71-6.39-5.13-6.39s-5.13 3.042-5.13 6.39c0 3.366 1.71 6.408 5.13 6.408s5.13-3.042 5.13-6.408zm-2.142 0c0 2.25-.918 4.41-2.988 4.41s-2.988-2.16-2.988-4.41c0-2.232.918-4.392 2.988-4.392s2.988 2.16 2.988 4.392z"/><path d="m260.742 107.616h13.68v13.968h5.184v-13.968h13.68v-5.256h-13.68v-13.824h-5.184v13.824h-13.68z"/></g><path d="m331 .5h223v207h-223z" fill="#ffe2e8"/><path d="m413.4 78.54c0-19.53-9-31.95-23.4-31.95s-23.4 12.42-23.4 31.95c0 19.62 9 32.04 23.4 32.04s23.4-12.42 23.4-32.04zm-10.62 0c0 13.77-4.86 21.96-12.78 21.96s-12.78-8.19-12.78-21.96c0-13.68 4.86-21.87 12.78-21.87s12.78 8.19 12.78 21.87zm15.895 25.29c0 3.69 2.88 6.66 6.75 6.66s6.75-2.97 6.75-6.66-2.88-6.66-6.75-6.66-6.75 2.97-6.75 6.66zm21.652 5.67h42.84v-9.45h-15.84v-52.38h-22.32v9.9h11.7v42.48h-16.38z" fill="#000"/><path d="m517.4 82.02h-4.04l-20.28 27.48h4.04zm-10.68 21.4c0 3.6 2.92 6.36 6.56 6.36s6.56-2.76 6.56-6.36-2.92-6.36-6.56-6.36-6.56 2.76-6.56 6.36zm-16.12-15.32c0 3.6 2.92 6.36 6.56 6.36s6.56-2.76 6.56-6.36-2.92-6.36-6.56-6.36-6.56 2.76-6.56 6.36zm3.24 0c0-1.92 1.48-3.36 3.32-3.36s3.32 1.44 3.32 3.36-1.48 3.36-3.32 3.36-3.32-1.44-3.32-3.36zm16.12 15.32c0-1.92 1.48-3.36 3.32-3.36s3.32 1.44 3.32 3.36-1.48 3.36-3.32 3.36-3.32-1.44-3.32-3.36z" fill="#000"/><path d="m395.619 148.5v-7.362h2.448v-1.386h-2.448v-.792c0-1.368.738-1.854 1.71-1.854.45 0 .792.072 1.062.18v-1.386c-.27-.108-.684-.216-1.314-.216-1.728 0-3.006 1.08-3.006 3.312v.756h-1.35v1.386h1.35v7.362zm7.764-8.946c-2.628 0-4.572 2.034-4.572 4.572s1.944 4.572 4.572 4.572 4.572-2.034 4.572-4.572-1.944-4.572-4.572-4.572zm0 1.422c1.71 0 3.006 1.404 3.006 3.15s-1.296 3.15-3.006 3.15-3.006-1.404-3.006-3.15 1.296-3.15 3.006-3.15zm11.388-1.332s-.162-.036-.378-.036c-1.152 0-2.286.684-2.682 1.692v-1.548h-1.512v8.748h1.53v-4.158c0-1.89.99-3.186 2.61-3.186.27 0 .432.036.432.036zm13.184.108v1.332c-.648-.972-1.818-1.53-3.096-1.53-2.484 0-4.392 1.998-4.392 4.572 0 2.592 1.908 4.572 4.392 4.572 1.278 0 2.466-.63 3.096-1.602v1.404h1.53v-8.748zm.09 4.374c0 1.764-1.296 3.15-3.006 3.15s-3.006-1.386-3.006-3.15 1.296-3.15 3.006-3.15 3.006 1.386 3.006 3.15zm5.868-.216c0-1.782.882-2.934 2.232-2.934 1.296 0 1.98.99 1.98 2.556v4.968h1.548v-4.59c0-1.782.882-2.934 2.232-2.934 1.314 0 1.98.972 1.98 2.52v5.004h1.548v-5.274c0-2.25-1.206-3.672-3.222-3.672-1.656 0-2.556.972-2.988 1.71-.522-1.062-1.458-1.71-2.754-1.71-1.206 0-2.088.558-2.574 1.458v-1.26h-1.53v8.748h1.548zm18.214-4.356c-2.628 0-4.572 2.034-4.572 4.572s1.944 4.572 4.572 4.572 4.572-2.034 4.572-4.572-1.944-4.572-4.572-4.572zm0 1.422c1.71 0 3.006 1.404 3.006 3.15s-1.296 3.15-3.006 3.15-3.006-1.404-3.006-3.15 1.296-3.15 3.006-3.15zm12.901 3.348c0 1.782-.972 2.934-2.448 2.934s-2.268-.99-2.268-2.556v-4.95h-1.548v5.13c0 2.322 1.278 3.816 3.492 3.816 1.314 0 2.232-.594 2.772-1.458v1.26h1.548v-8.748h-1.548zm5.975-.396c0-1.782.972-2.934 2.466-2.934s2.304.99 2.304 2.556v4.95h1.548v-5.13c0-2.322-1.296-3.816-3.528-3.816-1.314 0-2.25.594-2.79 1.458v-1.26h-1.548v8.748h1.548zm9.323-6.804v2.628h-1.35v1.386h1.35v4.842c0 1.692.99 2.718 2.646 2.718.594 0 1.044-.108 1.35-.27v-1.44c-.27.18-.648.27-.99.27-1.008 0-1.458-.468-1.458-1.494v-4.626h2.448v-1.386h-2.448v-2.628zm5.492 9.198c.396 1.44 1.656 2.376 3.276 2.376 1.71 0 3.024-1.116 3.024-2.664 0-1.152-.702-2.016-2.286-2.556l-.9-.306c-.882-.306-1.278-.702-1.278-1.224 0-.63.558-1.062 1.278-1.062.774 0 1.368.486 1.674 1.332l1.35-.54c-.468-1.314-1.566-2.124-2.988-2.124-1.62 0-2.844 1.026-2.844 2.502 0 1.116.684 1.962 2.25 2.484l.972.324c.846.288 1.242.666 1.242 1.26 0 .774-.72 1.224-1.458 1.224-.918 0-1.674-.612-1.944-1.548zm-93.957 15.358v1.206c-.648-.918-1.764-1.422-2.988-1.422-2.43 0-4.302 2.016-4.302 4.626s1.872 4.626 4.302 4.626c1.224 0 2.34-.576 2.988-1.494v1.278h2.052v-8.82zm-5.202 4.41c0-1.53 1.152-2.736 2.646-2.736s2.646 1.206 2.646 2.736-1.152 2.736-2.646 2.736-2.646-1.206-2.646-2.736zm11.931 4.41v-1.206c.648.9 1.764 1.422 2.988 1.422 2.43 0 4.302-2.034 4.302-4.626 0-2.628-1.872-4.626-4.302-4.626-1.224 0-2.34.576-2.988 1.476v-5.04h-2.07v12.6zm5.202-4.41c0 1.53-1.152 2.736-2.646 2.736s-2.646-1.206-2.646-2.736 1.152-2.736 2.646-2.736 2.646 1.206 2.646 2.736zm8.293-4.626c-2.7 0-4.698 2.034-4.698 4.626s1.998 4.626 4.698 4.626 4.698-2.034 4.698-4.626-1.998-4.626-4.698-4.626zm0 1.908c1.476 0 2.628 1.206 2.628 2.718s-1.152 2.718-2.628 2.718-2.628-1.206-2.628-2.718 1.152-2.718 2.628-2.718zm8.999 7.128h1.836l3.636-8.82h-2.16l-2.376 6.12-2.358-6.12h-2.214zm13.007-2.88c-.504.774-1.098 1.332-2.25 1.332-1.314 0-2.448-.954-2.538-2.232h6.786c0-.054.018-.288.018-.63 0-2.628-1.818-4.626-4.392-4.626-2.556 0-4.482 1.98-4.482 4.626 0 2.718 1.908 4.626 4.59 4.626 1.854 0 3.24-.9 3.978-2.286zm-4.77-2.412c.126-1.008 1.134-2.034 2.358-2.034 1.26 0 2.232.864 2.358 2.034zm15.905-8.676v1.674c-1.764.234-3.06 1.494-3.06 3.33 0 1.674 1.062 2.61 2.79 3.294l.27.108v3.51c-.81-.252-1.422-.9-1.746-1.8l-1.8.864c.576 1.656 1.89 2.682 3.546 2.916v1.8h1.494v-1.8c1.818-.288 3.24-1.584 3.24-3.564 0-1.584-.918-2.646-2.772-3.348l-.468-.18v-3.078c.558.27.972.81 1.224 1.422l1.746-.9c-.558-1.35-1.638-2.25-2.97-2.52v-1.728zm2.646 10.458c0 .756-.486 1.26-1.152 1.476v-2.97c.774.342 1.152.828 1.152 1.494zm-3.618-5.58c0-.594.378-1.062.972-1.242v2.556c-.648-.324-.972-.72-.972-1.314zm11.469 1.782h-.612v1.71h.612c1.332 0 2.34.756 2.34 1.89 0 1.206-.918 1.962-2.178 1.962-1.314 0-2.268-.972-2.358-2.25h-2.07c.036 2.592 1.746 4.212 4.374 4.212 2.52 0 4.374-1.566 4.374-3.816 0-1.386-.81-2.502-2.142-2.988 1.026-.558 1.602-1.494 1.602-2.646.018-1.908-1.62-3.348-3.888-3.348-2.34 0-4.014 1.548-4.05 3.96h2.052c.036-1.17.81-2.016 1.962-2.016 1.062 0 1.818.702 1.818 1.638 0 .9-.846 1.692-1.836 1.692zm7.639 9.252.9-1.8c.252-.486.378-.864.378-1.278 0-.756-.594-1.332-1.35-1.332-.738 0-1.35.558-1.35 1.332 0 .63.486 1.134 1.098 1.134h.018l-1.008 1.944zm12.772-8.136c0-3.348-1.71-6.39-5.13-6.39s-5.13 3.042-5.13 6.39c0 3.366 1.71 6.408 5.13 6.408s5.13-3.042 5.13-6.408zm-2.142 0c0 2.25-.918 4.41-2.988 4.41s-2.988-2.16-2.988-4.41c0-2.232.918-4.392 2.988-4.392s2.988 2.16 2.988 4.392zm14.2 0c0-3.348-1.71-6.39-5.13-6.39s-5.13 3.042-5.13 6.39c0 3.366 1.71 6.408 5.13 6.408s5.13-3.042 5.13-6.408zm-2.142 0c0 2.25-.918 4.41-2.988 4.41s-2.988-2.16-2.988-4.41c0-2.232.918-4.392 2.988-4.392s2.988 2.16 2.988 4.392zm14.201 0c0-3.348-1.71-6.39-5.13-6.39s-5.13 3.042-5.13 6.39c0 3.366 1.71 6.408 5.13 6.408s5.13-3.042 5.13-6.408zm-2.142 0c0 2.25-.918 4.41-2.988 4.41s-2.988-2.16-2.988-4.41c0-2.232.918-4.392 2.988-4.392s2.988 2.16 2.988 4.392z" fill="#000"/></svg>